<?xml version="1.0" encoding="UTF-8"?>
<svg id="_レイヤー_1" data-name="レイヤー 1" xmlns="http://www.w3.org/2000/svg" viewBox="0 0 223.47 179.33">
  <g>
    <path d="M18.64,134.79c-1.37.35-4.36,1.19-5.76.62-.56-.23-.93-.94-.7-1.49.18-.44.68-.55,1.17-.63,2.04-.32,4.24-.74,6.01-1.76.02-.18.04-.35.1-.51.09-.24.19-.48.28-.72-1.26-.49-2.51-.99-3.76-1.5-.76-.31-1-.92-.7-1.63.3-.71.89-.84,1.55-.57,1.25.51,2.51,1.01,3.77,1.5.16-.41.32-.83.48-1.24.31-.8,1.02-1.03,1.85-.71.83.32,1.03.94.74,1.7-.16.41-.31.83-.47,1.25,1.68.63,3.37,1.25,5.06,1.84.15-.42.29-.84.44-1.25.28-.81.99-1.06,1.82-.77.8.27,1.05.9.79,1.68-.14.42-.28.84-.43,1.26.81.27,1.61.54,2.42.81.72.24,1.09.71.85,1.45-.24.74-.85,1.03-1.59.79-.82-.27-1.63-.54-2.45-.82-.08.24-.17.49-.25.73-.26.77-.86,1.11-1.72.82-.86-.3-1.22-.93-.94-1.74.09-.24.17-.49.26-.73-1.71-.6-3.41-1.22-5.11-1.86-.08.21-.16.43-.24.64.26.47.2,1.04-.31,1.35-.19.11-.38.23-.57.34,2.99,1.13,5.99,2.2,9.01,3.21,1.95.65,1.92,1.94,1.41,3.49-.58,1.8-1.58,3.68-2.93,5.05-.93,1.01-2.39,1.02-3.74.55-.9-.31-1.98-.96-1.63-1.97.3-.85,1.26-.6,1.99-.4.64.18,1.11.11,1.56-.33,1.07-.95,1.56-2.28,2-3.58.2-.61.04-1.12-.66-1.36-3.23-1.1-6.44-2.27-9.63-3.5ZM9.57,157.04c-.4,1.04-3.71,3.21-5.34,2.55-.76-.31-1.6-1.12-1.3-1.83.33-.79,1.88-1.36,2.67-1.83.85-.49,1.81-1.26,2.98-.79.84.33,1.28,1.14.99,1.91ZM22.85,137.42c1.52.55,2.14,1.45,1.61,2.95-.14.39-.28.78-.41,1.17-.53,1.5-1.6,1.85-3.16,1.28-1.39-.51-2.79-1.03-4.17-1.56-1.6-.61-2.18-1.59-1.61-3.02.16-.4.32-.8.47-1.2.57-1.44,1.64-1.75,3.2-1.15,1.36.52,2.72,1.03,4.08,1.53ZM28.48,157.55c-.16.52-.33,1.04-.49,1.56,4.76,1.5,9.54,2.87,14.35,4.1,1.58.4,2.56,1.13,2.2,2.63-.41,1.67-1.44,3.36-2.87,4.46-1.18.94-3.1.85-4.62.43-1.08-.29-2.29-.89-1.98-2.01.22-.96,1.77-.71,2.77-.35,1.07.29,1.86.05,2.42-.69.37-.61.95-1.26,1.12-1.93.09-.33-.12-.52-.51-.62-9.36-2.44-18.62-5.37-27.75-8.8-2.02-.76-2.66-1.89-1.99-3.61.98-2.53,1.97-5.07,2.95-7.6.67-1.72,1.87-2.17,3.79-1.45,8.67,3.25,17.47,6.04,26.36,8.36.82.21,1.19.71,1,1.45-.19.75-.81,1.03-1.59.83-4.35-1.13-8.67-2.38-12.97-3.73-.16.52-.33,1.04-.49,1.56,4.13,1.3,8.27,2.5,12.44,3.6.7.18,1.09.59.92,1.26-.17.67-.73.88-1.43.69-4.2-1.11-8.38-2.31-12.54-3.62-.15.49-.31.98-.46,1.47,4.07,1.28,8.16,2.47,12.28,3.56.75.2,1.09.64.92,1.31-.17.66-.7.93-1.46.73-4.14-1.1-8.27-2.29-12.37-3.58ZM21.76,139.99c.16-.44-.12-.77-.6-.95-.8-.3-1.61-.6-2.41-.9-.48-.18-.91-.12-1.08.32-.03.07-.05.13-.08.2-.19.48.09.82.57,1,.81.31,1.61.61,2.42.91.49.18.91.11,1.09-.38.02-.07.05-.13.07-.2ZM27.1,151.16c.17-.52.34-1.03.51-1.55-3.21-1.05-6.4-2.17-9.57-3.35-.68-.25-1.16-.07-1.39.54-.08.2-.15.4-.23.6,3.54,1.33,7.1,2.58,10.68,3.76ZM25.99,154.54l.48-1.47c-3.6-1.18-7.19-2.45-10.76-3.78-.18.48-.36.96-.54,1.45,3.59,1.35,7.19,2.61,10.82,3.81ZM24.83,158.09c.17-.52.34-1.03.51-1.55-3.65-1.2-7.29-2.48-10.9-3.83-.08.2-.15.4-.23.6-.23.6.03,1.07.73,1.32,3.28,1.22,6.58,2.37,9.89,3.46ZM14.05,163.35c-1.45-.52-1.17-1.71-.93-2.67.05-.27.09-.54.14-.82.02-.36.06-.76.18-1.08.28-.76,1.33-.83,2.09-.56.71.26,1.15.82,1.18,1.48.01.87-.02,1.86-.3,2.67-.34.97-1.2,1.4-2.36.98ZM23.87,160.84c1.14.37,1.4,1.36,1.43,2.27,0,.67.06,1.46-.14,2.12-.25.78-1.28,1.17-2.2.87-1.07-.35-1.13-1.46-1.19-2.24-.06-.79-.1-1.62.13-2.31.26-.77,1.12-.98,1.98-.7ZM47.42,141.07c-1.11,1.57-2.5,2.9-4.02,4.08,1.28,1.1,2.61,2.07,4.09,2.89.84.48,2.01.98,1.75,2.07-.19.79-1.13,1.05-1.95.85-1.92-.47-4.86-3.16-6.27-4.5-2.01.83-6.01,1.89-8.23,1.2-.59-.18-1.06-.87-.9-1.41.31-.98,2.08-.83,2.98-.87,1.55-.11,3.03-.34,4.44-.88-1.21-1.64-2.05-3.37-2.66-5.27-.93.39-2.17.99-3.23.66-.61-.2-.98-.85-.78-1.47.2-.61,1.02-.8,1.58-1.03,2.12-.81,3.95-2.18,5.39-3.86.43-.5.86-.86,1.54-.66.72.21,1.29.96,1.08,1.7-.09.33-.31.58-.56.82-.43.43-.87.85-1.3,1.27,3.43,1.01,6.87,1.94,10.32,2.79.78.19,1.17.69.99,1.44-.18.75-.81,1.04-1.56.85-.89-.22-1.79-.45-2.68-.68ZM32.51,163.21c.91.27,1.31,1.05,1.44,1.85.14.8.33,1.79.12,2.53-.22.79-1.16,1.1-2.04.85-1.51-.44-1.22-1.97-1.39-3-.06-.51-.21-1.05-.06-1.54.21-.7,1.16-.91,1.93-.68ZM39.12,138.77c.48,1.75,1.33,3.07,2.45,4.55,1.2-.87,2.26-1.78,3.1-2.97-1.85-.5-3.7-1.03-5.55-1.57Z"/>
    <path d="M51.26,155.88c-.74-.17-1.27-.83-1.11-1.54.15-.63.74-.88,1.32-1.06,3.23-1.19,6-2.97,8.26-5.36.71-.73,1.48-1.76,2.68-1.52,1.07.21,1.44,1.23.77,2.03-.26.29-.51.57-.77.86,1.69.32,3.38.63,5.07.92.68.12,1.28.7,1.17,1.37-.13.8-.83,1.6-1.32,2.26-.99,1.4-2.3,2.57-3.66,3.71,1.36,1.51,2.92,2.87,4.55,4.18.86.66,2.61,1.67,2.44,2.77-.1.68-.81,1.14-1.58,1.02-1.66-.24-6.35-5.15-7.48-6.51-2.64,1.38-5.34,2.59-8.44,3.32-1.11.29-2.85.91-4.04.63-.76-.18-1.32-.79-1.15-1.5.17-.71,1.02-.95,1.74-1.05,3.6-.71,7.05-1.91,10.1-3.67-.64-1.17-1.27-2.35-1.84-3.52-1.39.77-5.09,3.04-6.72,2.66ZM65.38,143.13c1.9.35,3.79.68,5.69.99,1.37.22,2.09.81,2.07,2.19-.21,1.4-.43,2.8-.64,4.2-.13.89-.71,1.28-1.62,1.14-.91-.14-1.42-.75-1.28-1.6.14-.86.28-1.72.42-2.58.11-.68-.18-1.12-.9-1.24-3.83-.64-7.66-1.38-11.47-2.2-.71-.15-1.19.14-1.34.81-.2.92-.41,1.84-.61,2.77-.18.84-.74,1.2-1.64,1-.95-.21-1.38-.8-1.19-1.64.28-1.2.56-2.4.83-3.59.41-1.76,1.42-2.35,3.26-1.95,1.72.38,3.45.74,5.18,1.09.14-.69.27-1.38.41-2.06.2-1.01.94-1.34,1.94-1.15,1.04.2,1.43.75,1.25,1.76l-.38,2.07ZM63.87,163.79c2.14.38,2.96,1.42,2.65,3.28-.27,1.65-.54,3.3-.82,4.95-.31,1.9-1.45,2.59-3.68,2.2-2.58-.46-5.15-.95-7.72-1.47-2.22-.46-3.02-1.52-2.61-3.4.36-1.64.71-3.27,1.07-4.91.4-1.85,1.54-2.51,3.68-2.07,2.47.51,4.95.98,7.43,1.42ZM63.34,167.62c.16-.89-.34-1.45-1.35-1.64-1.54-.28-3.08-.57-4.61-.88-1.01-.2-1.63.15-1.81,1.03-.19.91-.37,1.82-.56,2.73-.18.88.25,1.5,1.28,1.7,1.57.31,3.14.61,4.71.9,1.03.19,1.71-.22,1.87-1.1.16-.92.32-1.83.48-2.75ZM64.87,152.24c.03-.17-.03-.35-.26-.4-1.32-.24-2.64-.49-3.96-.75-.26.2-.52.39-.78.59.59,1.3,1.41,2.47,2.14,3.7.63-.53,2.75-2.5,2.86-3.14ZM78,171.05c-.15,1.28-2.43,2.34-3.52,2.97-1.08.64-4.48,2.03-5.78,1.82-.85-.13-1.46-.79-1.34-1.55.11-.72.96-.98,1.65-1.18,2.16-.63,4.22-1.68,5.83-2.98.45-.37.88-.66,1.51-.58.88.11,1.74.69,1.65,1.5ZM80.93,149.1c.55-1.14,1.05-2.34,1.51-3.58-2.16-.25-4.32-.53-6.47-.83-.93-.13-1.29-.75-1.17-1.6.13-.85.67-1.2,1.55-1.08,5.14.73,10.3,1.3,15.46,1.7.88.07,1.29.57,1.22,1.43-.06.85-.59,1.33-1.48,1.26-1.99-.16-3.97-.34-5.96-.54-.56,1.19-1.12,2.38-1.69,3.57,1.52.16,3.04.31,4.56.45,2.3.2,3.26,1.26,3.1,3.45-.35,4.59-.71,9.18-1.06,13.78-.16,2.14-1.36,3.04-3.84,2.82-3.36-.3-6.71-.67-10.06-1.09-2.48-.32-3.45-1.46-3.15-3.58.64-4.56,1.28-9.12,1.92-13.68.31-2.17,1.48-2.99,3.77-2.7.6.08,1.2.15,1.8.22ZM77.7,154.62c3.59.47,7.19.86,10.79,1.17.06-.67.12-1.34.18-2.01.07-.81-.35-1.28-1.21-1.36-2.67-.25-5.35-.54-8.01-.87-.86-.11-1.37.26-1.48,1.07-.09.67-.17,1.33-.26,2ZM77.39,157c-.14,1.09-.28,2.18-.42,3.28,3.67.48,7.34.87,11.02,1.2.1-1.1.19-2.19.29-3.29-3.63-.32-7.26-.71-10.89-1.18ZM76.65,162.66c-.1.75-.2,1.5-.29,2.25-.1.77.33,1.25,1.24,1.37,2.82.35,5.64.66,8.47.92.92.09,1.44-.3,1.5-1.07.07-.75.13-1.51.2-2.26-3.71-.33-7.42-.73-11.12-1.21ZM85.03,170.51c.83.08,1.37.65,1.91,1.21,1.25,1.45,2.84,2.78,4.55,3.94.57.38,1.19.81,1.15,1.54-.05.81-.99,1.27-1.89,1.2-1.89-.12-7.49-5.29-7.29-6.92.07-.68.84-1.04,1.58-.97Z"/>
    <path d="M109.26,166.87c-1.64,2.3-4.46,6.22-7.97,6.09-4.84-.19-6.44-5.39-6.22-8.81.3-4.8,3.48-9.19,7.56-11.88,3.55-2.32,7.89-3.42,12.16-3.48,7.7-.08,15.2,4.04,15.84,11.95.39,5.13-2.6,9.93-7.23,13-1.01.69-2.56,1.69-3.8,1.72-1.14.03-2.35-.8-2.37-1.83-.01-.51.67-.87,1.15-1.14,2.33-1.22,4.42-2.63,5.93-4.63,1.55-2.09,2.45-4.64,2.31-7.12-.34-5.48-5.13-8.58-10.52-9.01-1.5,5.52-3.35,10.35-6.84,15.14ZM98.81,163.88c-.07,1.54.33,5.26,2.66,5.35,1.76.07,4.76-4.24,5.58-5.52,2.49-3.69,4.26-7.77,5.33-11.98-6.44.94-13.2,5.55-13.57,12.15Z"/>
    <path d="M138.56,166.57c-.25,2.18-1.76,10.27-4.99,10.52-.7.05-1.43-.28-1.47-.92-.03-.47.33-.97.6-1.38,1.61-2.4,2.48-5.45,2.91-8.2.84-5.2.27-10.54-.21-15.79-.13-1.44-.27-2.88-.4-4.31-.18-1.92.66-2.9,2.64-3.11,3.05-.32,6.1-.7,9.14-1.13,2.01-.29,3.03.46,3.32,2.37.14.93.29,1.87.43,2.8.3,1.95-.47,2.94-2.56,3.24-3.19.45-6.38.85-9.58,1.18.18,1.75.31,3.46.4,5.18.77-.08,1.55-.16,2.32-.25-.1-.9-.2-1.79-.3-2.69-.09-.77.42-1.17,1.2-1.26.78-.09,1.28.23,1.37.96.11.89.22,1.79.33,2.68,1.03-.13,2.07-.26,3.1-.4-.12-.89-.24-1.79-.36-2.68-.1-.77.45-1.18,1.22-1.29.77-.11,1.29.21,1.39.93.13.89.26,1.78.39,2.68.63-.09,1.26-.19,1.89-.28.88-.13,1.37.26,1.49,1.03.12.76-.27,1.35-1.11,1.47-.64.1-1.27.19-1.91.28.21,1.44.42,2.89.63,4.33,1.23-.18,2.47-.37,3.7-.56.9-.14,1.4.25,1.53,1.01.13.76-.21,1.38-1.12,1.53-5.31.85-10.63,1.53-15.97,2.06ZM139.52,173.68c1.22-1.29,2.14-2.85,2.8-4.4.27-.64.66-1.11,1.43-1.2.77-.09,1.56.29,1.64.97.15,1.15-.95,2.75-1.53,3.77-.65,1.24-1.71,3-3.46,3.18-.75.08-1.58-.23-1.65-.96-.05-.51.4-.99.76-1.37ZM141.88,163.63c-.16-1.45-.33-2.9-.49-4.35-.84.1-1.69.19-2.53.27,0,1.47-.03,2.94-.08,4.41,1.03-.1,2.06-.21,3.09-.33ZM138.13,149.36c2.81-.29,5.61-.63,8.41-1.02.81-.11,1.16-.55,1.05-1.32-.05-.38-.11-.76-.16-1.15-.11-.77-.57-1.13-1.37-1.02-2.35.32-4.7.61-7.05.87-.8.09-1.2.56-1.12,1.33.08.77.16,1.54.24,2.3ZM147.73,162.91c-.19-1.45-.39-2.89-.59-4.34-1.04.14-2.09.28-3.13.4.18,1.45.36,2.9.53,4.34,1.06-.13,2.12-.27,3.18-.41ZM153.12,172.41c-1.28.19-2.45-.99-3.2-1.7-.57-.53-1.31-1.21-1.41-1.97-.09-.68.47-1.27,1.24-1.38,1.25-.18,2.68,1.48,3.87,2.38.34.25.74.58.81,1.05.11.72-.42,1.5-1.31,1.63ZM157.18,158.24c-.89.15-1.45-.32-1.58-1.12-.13-.8.25-1.35,1.13-1.5,4.02-.7,8.04-1.49,12.03-2.37,1.24-.27,2.35-.05,2.65,1.25.27,1.17-.25,3.18-.61,4.41-.63,2.25-1.59,4.22-2.88,6.24,2.47,1.28,5,1.69,7.9,2.07,1.11.14,2.93.04,3.22,1.21.2.79-.38,1.6-1.27,1.81-1.62.39-4.26-.1-5.77-.43-2.15-.45-4.14-1.22-5.95-2.22-2.12,2.26-4.58,4.29-7.51,5.92-1.11.62-2.64,1.57-3.94,1.76-.95.15-1.86-.2-1.98-1.05-.18-1.23,1.5-1.78,2.53-2.25,3.32-1.61,6.1-3.54,8.5-6.14-2.58-2.3-3.67-4.82-4.85-7.87-.54.1-1.09.19-1.63.29ZM168.32,148.24c1.22-.27,1.26-1.52,1.28-2.45.01-.75.23-1.42,1.08-1.62.8-.19,1.51.21,1.69.96.25,1.04.09,2.32-.34,3.3-.52,1.23-1.55,1.95-2.91,2.26-.77.17-1.55.34-2.32.51-1.87.4-2.78-.56-3.11-2.15-.38-1.84-.75-3.67-1.13-5.51-.13-.63-.55-.89-1.21-.76-.51.1-1.03.2-1.54.3-.66.13-.96.49-.84,1.12.24,1.74.15,3.68-.43,5.36-.49,1.36-1.95,4.02-3.66,4.3-.74.12-1.45-.24-1.57-.96-.07-.42.2-.77.48-1.08,2.16-2.53,2.76-4.52,2.2-7.69-.03-.17-.06-.34-.09-.51-.3-1.69.35-2.59,2.1-2.92,1.38-.26,2.76-.53,4.14-.82,1.74-.36,2.68.22,3.05,1.9.43,1.97.85,3.94,1.28,5.91.1.46.33.85.91.72.32-.07.63-.14.95-.21ZM161.8,157.4c.8,2.42,1.94,4.3,3.74,6.09,1-1.69,1.91-3.46,2.29-5.34.09-.5.27-1.02.16-1.53-.06-.29-.33-.41-.66-.34-1.84.39-3.69.77-5.54,1.12Z"/>
    <path d="M193.78,137.51c4.16-1.41,8.29-2.92,12.39-4.55,1.93-.77,3.12-.29,3.86,1.5.67,1.64,1.35,3.28,2.02,4.92.37.91,0,1.63-1.03,2.04-1.07.43-1.89.29-2.28-.71-.47-1.2-.95-2.39-1.42-3.59-.35-.88-1-1.13-1.95-.76-8.08,3.13-16.27,5.85-24.56,8.14-.98.27-1.35.86-1.1,1.77.41,1.5.81,3.01,1.22,4.51.26.95-.2,1.61-1.26,1.89-1.1.29-1.9.05-2.17-.99-.51-1.98-1.02-3.96-1.52-5.94-.48-1.87.23-2.98,2.17-3.5,4.22-1.13,8.42-2.38,12.59-3.73-.75-2.3-1.49-4.6-2.24-6.9-.3-.94.18-1.59,1.07-1.88.92-.31,1.59.01,1.88.86.78,2.3,1.56,4.61,2.34,6.91ZM198.47,161.9l-1.01-3.1c-3.64,1.18-7.29,2.29-10.96,3.32-.96.27-1.59-.18-1.82-1.01-.23-.83.12-1.41,1.06-1.68,3.63-1.02,7.25-2.11,10.85-3.28-.2-.61-.4-1.22-.6-1.84-.3-.94.29-1.63,1.3-1.96,1.06-.35,1.72-.08,2.03.86.21.61.41,1.22.62,1.83,3.34-1.13,6.66-2.33,9.97-3.6.97-.37,1.57-.05,1.88.75.31.8.05,1.5-.88,1.86-3.34,1.28-6.7,2.49-10.07,3.63.35,1.03.7,2.06,1.05,3.09,5.33-1.81,10.63-3.78,15.87-5.92.94-.38,1.58-.14,1.91.65.33.79.09,1.54-.91,1.95-11.44,4.67-23.12,8.56-34.94,11.67-1.03.27-1.62-.2-1.84-1.07-.2-.79.16-1.37,1.13-1.62,5.14-1.35,10.26-2.86,15.34-4.51ZM181.73,137.86c-.77-.54-1.98-1.35-2.22-2.22-.21-.74.42-1.46,1.1-1.65,1.24-.36,2.57.86,3.46,1.48.87.55,2.19,1.17,2.51,2.2.25.82-.31,1.62-1.14,1.87-1.31.4-2.73-1.02-3.71-1.68ZM205.96,145.78c.67,1.77.07,2.96-1.98,3.71-4.65,1.68-9.32,3.24-14.03,4.66-2.09.63-3.27.03-3.79-1.79-.32-1.11-.64-2.23-.97-3.34-.52-1.82.13-2.93,2.14-3.54,4.55-1.37,9.08-2.88,13.57-4.5,1.98-.72,3.18-.22,3.85,1.55.41,1.08.81,2.17,1.22,3.25ZM201.85,147.42c.86-.31,1.17-.88.89-1.64-.14-.39-.28-.78-.42-1.17-.28-.77-.87-1.01-1.72-.7-3.75,1.34-7.53,2.59-11.32,3.76-.81.25-1.14.79-.91,1.58.12.4.24.79.36,1.19.23.78.82,1.05,1.64.8,3.85-1.18,7.68-2.45,11.48-3.81ZM200.72,128.63c.37.96-.42,3.23-.79,4.2-.34,1.04-.76,2.43-1.97,2.86-.65.23-1.61.12-1.87-.61-.23-.65.16-1.47.41-2.1.41-1.01.66-2.06.94-3.12.19-.8.38-1.69,1.26-2.02.84-.31,1.73.03,2.02.79Z"/>
  </g>
  <path d="M188.84,102.48c-.14,6.34,6.59,8.92,11.88,9.29s11.07-1.21,15.48-4.4c2.2-1.59,4.34-3.55,5.4-6.1s.68-5.44-.85-7.73c-3.29-4.94-9.76-5.49-14.97-3.7-3.26,1.12-6.31,2.91-9.2,4.76-2.62,1.67-5.1,3.66-6.53,6.48-.87,1.72,1.72,3.24,2.59,1.51,2.03-4.04,6.77-6.42,10.62-8.41s9.48-3.72,13.43-.69c1.56,1.19,2.69,3.18,2.52,5.18-.19,2.24-1.98,4.02-3.6,5.39-3.32,2.79-7.66,4.45-11.97,4.72s-11.93-.66-11.8-6.3c.04-1.93-2.96-1.93-3,0h0Z"/>
  <path d="M211.5,98.49c1.55-2.48,1.16-5.8-.76-7.96-.52-.59-1.6-.57-2.12,0-.58.63-.56,1.49,0,2.12.04.04.08.09.12.13.2.23-.14-.21-.04-.06.07.1.13.19.2.29.07.11.13.23.2.34.03.05.05.11.08.16.14.27-.09-.25-.03-.08.09.23.17.47.23.71.03.13.05.26.08.39.04.19-.03-.33-.02-.14,0,.07.02.15.02.22.02.25.02.5,0,.75,0,.14-.11.53,0,.08-.03.11-.04.23-.07.35-.03.13-.06.26-.1.38-.04.11-.12.26-.13.37,0-.05.14-.3.05-.12-.03.05-.05.11-.08.16-.07.13-.14.26-.22.38-.42.67-.16,1.68.54,2.05s1.61.17,2.05-.54h0Z"/>
  <path d="M206.76,99.54c.47-1.09.75-2.21.74-3.41s-.3-2.32-.78-3.4c-.14-.32-.57-.6-.9-.69-.36-.1-.84-.05-1.16.15s-.6.51-.69.9c-.09.42-.02.77.15,1.16.13.29-.09-.24-.03-.07.03.07.05.14.08.21.05.14.1.29.14.43.08.29.14.59.18.89l-.05-.4c.07.57.07,1.15,0,1.72l.05-.4c-.04.28-.09.57-.17.84-.04.13-.07.26-.12.39-.04.12-.23.57-.05.15-.17.39-.27.73-.15,1.16.1.35.36.73.69.9.35.18.77.28,1.16.15.35-.11.75-.34.9-.69h0Z"/>
  <path d="M203.39,99.14c.38-1.91.08-3.91-.96-5.57-.41-.67-1.36-.99-2.05-.54s-.98,1.34-.54,2.05c.17.27.32.56.45.85l-.15-.36c.21.5.35,1.03.43,1.57l-.05-.4c.07.54.07,1.09,0,1.63l.05-.4c-.02.12-.04.24-.06.37-.08.4-.06.8.15,1.16.18.31.54.61.9.69.74.17,1.68-.22,1.85-1.05h0Z"/>
  <path d="M189.08,105.81c-1.19.27-2.38.5-3.58.67-.07.01-.14.02-.21.03,0,0,.31-.03.13-.02-.11,0-.22.02-.32.03-.24.02-.47.01-.7,0-.27,0,.28.07-.07-.01-.05-.01-.1-.03-.15-.04-.07-.01-.18,0-.01,0,.14,0,.08.04,0,0-.04-.03-.09-.06-.13-.08-.14-.07.1.06.1.08,0,0-.14-.15-.15-.15.03,0,.14.24.09.1,0-.02-.06-.12-.07-.13.02.01.09.28.06.13,0-.05-.03-.1-.04-.14-.08-.26,0,.27,0,0,0-.07.01-.44,0-.21s.05-.13.07-.21c.07-.26-.13.21.01-.02.02-.04.13-.27.17-.27.01,0-.19.21-.06.08.05-.05.1-.11.16-.17.08-.08.17-.15.25-.23.13-.12-.08.06-.08.06,0-.02.12-.08.14-.1.21-.14.43-.26.66-.38.12-.06.25-.11.37-.17.15-.07-.06.02-.07.03.06-.02.13-.05.19-.08.27-.11.55-.21.83-.3.6-.19,1.22-.35,1.84-.46.09-.02.18-.03.27-.04.14-.02.15-.02,0,0,.16-.02.31-.04.47-.05.34-.03.67-.05,1.01-.06.78-.02,1.54-.68,1.5-1.5s-.66-1.52-1.5-1.5c-1.46.04-2.93.26-4.32.7-1.32.42-2.74.98-3.72,1.99-1.11,1.15-1.54,2.85-.85,4.33.63,1.36,2.17,1.88,3.57,1.81,1.65-.08,3.34-.46,4.95-.83.77-.18,1.29-1.1,1.05-1.85-.26-.8-1.03-1.24-1.85-1.05h0Z"/>
  <path d="M86.65,78.62c-2.08,17.65-9.62,34.57-21.31,47.95-1.27,1.45.85,3.58,2.12,2.12,9.5-10.88,16.41-23.94,19.97-37.95,1.02-3.99,1.74-8.04,2.22-12.13.23-1.91-2.78-1.9-3,0h0Z"/>
  <path d="M88.12,80.37c13.27-6.98,29.7-7.36,43.25-.93,1.74.82,3.26-1.76,1.51-2.59-14.57-6.91-32-6.59-46.28.93-1.71.9-.19,3.49,1.51,2.59h0Z"/>
  <path d="M131.56,79.87c3.44,14.68,7.05,29.82,15.67,42.47,2.26,3.32,4.84,6.43,7.75,9.2,1.4,1.33,3.52-.79,2.12-2.12-13.83-13.19-18.44-32.4-22.65-50.34-.44-1.88-3.33-1.08-2.89.8h0Z"/>
  <path d="M102.44,88.5c-.44,3.76-.29,7.54.36,11.27.14.8,1.12,1.25,1.85,1.05.84-.23,1.19-1.04,1.05-1.85-.6-3.45-.65-6.99-.25-10.47.09-.81-.76-1.5-1.5-1.5-.89,0-1.41.69-1.5,1.5h0Z"/>
  <path d="M118.33,89.44c.51,3.47.55,7.01.2,10.49-.08.81.75,1.5,1.5,1.5.88,0,1.42-.69,1.5-1.5.37-3.77.24-7.54-.31-11.29-.12-.8-1.13-1.24-1.85-1.05-.86.24-1.17,1.04-1.05,1.85h0Z"/>
  <path d="M107.99,106.17c1.55-.27,3.11-.42,4.68-.46.8-.02,1.6,0,2.4.03.42.02.83.05,1.25.09.17.02.35.03.52.05.12.02.14.02.05,0,.18.04.19.04.02,0l-.54-.54c0-.65-.04-.8-.09-.43-.02.11-.04.22-.07.33-.03.17-.07.33-.1.5-.08.39-.17.78-.27,1.16-.08.33-.18.65-.28.98-.06.19-.12.37-.19.56-.02.06-.19.47-.13.34-.14.33-.31.65-.49.95-.17.29-.35.55-.49.7-.24.26-.49.54-.72.69,0,0-.37.19-.27.15-.17.07-.14.06-.36.04-.11,0-.11,0-.01,0-.11-.03-.21-.06-.32-.1.19.08-.28-.16-.26-.14-.35-.21-.52-.35-.82-.62-.55-.5-1.09-1.02-1.58-1.58-.46-.52-.77-.97-1.13-1.63-.26-.49-.35-1.08-.28-1.75.08-.81-.75-1.5-1.5-1.5-.88,0-1.42.69-1.5,1.5-.24,2.35,1.2,4.41,2.76,6.01,1.69,1.74,3.94,3.66,6.48,2.38,2.05-1.04,3.19-3.43,3.81-5.52.3-1.02.58-2.1.7-3.16.1-.89-.3-1.67-1.12-2.05-.61-.29-1.36-.28-2.02-.33-2.98-.24-5.97-.06-8.92.46-.8.14-1.25,1.12-1.05,1.85.23.84,1.04,1.19,1.85,1.05h0Z"/>
  <path d="M56.87,109.5c2.81-11.09,7.11-21.75,12.79-31.68,2.81-4.93,5.95-9.67,9.4-14.18,1.73-2.26,3.54-4.46,5.42-6.6.91-1.04,1.85-2.06,2.79-3.07s1.88-2.32,3.04-2.98,3.01,1.28,3.86,2.04c1.13,1.01,2.18,2.12,3.12,3.31,1.93,2.44,3.39,5.24,4.33,8.21.18.58.78,1.17,1.45,1.1,6.34-.63,12.71-.55,19.02.26.63.08,1.3-.52,1.45-1.1,1.64-6.3,5.18-11.88,10.15-16.08l-1.82.23c15.7,9.75,21.28,28.79,27.03,45.21,1.89,5.41,3.79,10.82,5.68,16.23.63,1.81,3.53,1.03,2.89-.8-3.39-9.68-6.65-19.42-10.22-29.04-3.24-8.73-7.09-17.31-13.03-24.57-3.08-3.76-6.71-7.06-10.84-9.62-.6-.37-1.31-.19-1.82.23-5.34,4.51-9.16,10.64-10.92,17.4l1.45-1.1c-6.32-.81-12.69-.9-19.02-.26l1.45,1.1c-1.81-5.69-5.3-10.71-10.05-14.34-1.2-.91-2.48-1.76-4.05-1.57s-2.75,1.4-3.82,2.51c-2.12,2.18-4.17,4.44-6.12,6.77-8.01,9.53-14.65,20.19-19.63,31.6-2.82,6.47-5.12,13.14-6.86,19.98-.48,1.87,2.42,2.67,2.89.8h0Z"/>
  <path d="M160.33,88.57c2.41-2.69,5.5-5.2,9.21-5.67,2.92-.37,6.32.94,7.73,3.64,1.74,3.32-.72,6.85-2.91,9.25-2.57,2.8-5.57,5.84-9.23,7.1-1.82.62-1.04,3.52.8,2.89,3.62-1.24,6.47-3.76,9.15-6.41,2.48-2.45,5.08-5.39,5.65-8.96,1.13-7.05-6.16-11.52-12.45-10.32-3.99.76-7.4,3.41-10.05,6.36-1.29,1.43.83,3.56,2.12,2.12h0Z"/>
  <path d="M57.53,100.64c-6.52-2.04-12.39-8.46-12.54-15.53-.03-1.54.25-3.34,1.53-4.36,1.5-1.21,3.73-.93,5.48-.56,3.94.83,7.55,2.64,9.12,6.58.7,1.77,3.61,1,2.89-.8-1.45-3.63-4.16-6.3-7.81-7.7-3.36-1.29-8.06-2.35-11.24-.08-2.99,2.13-3.31,6.14-2.68,9.47s2.37,6.7,4.63,9.38c2.57,3.05,6.02,5.3,9.82,6.5,1.85.58,2.64-2.32.8-2.89h0Z"/>
  <path d="M100.34,134.79c9.87,4.53,21.9,3.5,30.72-2.94,1.54-1.13.05-3.73-1.51-2.59-7.9,5.78-18.75,7.05-27.69,2.94-1.74-.8-3.27,1.78-1.51,2.59h0Z"/>
  <path d="M123.15,134.72c-.13,1.81.97,3.25,2.16,4.5,1.01,1.06,2.19,2.14,3.63,2.56,3.42.99,5.89-2.22,7.27-4.88.77-1.48,1.35-3.08,1.67-4.73.15-.81.26-1.63.31-2.44.02-.34.03-.69.03-1.03,0-.38-.17-1.07-.04-1.41.21-.53,1.19-.92,1.64-1.22.69-.47,1.35-.97,2-1.49,1.37-1.11,2.61-2.36,3.73-3.72,1.22-1.48-.89-3.61-2.12-2.12-1.82,2.21-3.91,3.9-6.28,5.48-1.29.86-1.97,1.85-1.97,3.44,0,1.45.02,2.81-.3,4.23-.3,1.33-.77,2.61-1.42,3.81-.58,1.05-1.31,2.38-2.38,3s-2.05-.08-2.86-.82c-.87-.8-2.15-1.86-2.06-3.15.13-1.93-2.87-1.92-3,0h0Z"/>
  <path d="M155.8,132.1c7.83.09,15.56-3.37,20.65-9.33,1.25-1.46-.86-3.59-2.12-2.12-4.61,5.39-11.43,8.53-18.53,8.45-1.93-.02-1.93,2.98,0,3h0Z"/>
  <path d="M163.38,110.91c2.58.99,4.97,2.52,6.98,4.41,1.01.95,1.94,1.98,2.75,3.11.36.51.77,1.06,1.01,1.64.04.1.09.24.12.35,0-.03.08.5.07.31.02.24.06.06-.02.28.07-.17-.19.26-.18.24-.49.64-.1,1.68.54,2.05.77.45,1.56.11,2.05-.54,1.19-1.54.45-3.67-.5-5.12s-2.06-2.82-3.29-4.04c-2.49-2.46-5.47-4.34-8.73-5.59-.76-.29-1.65.32-1.85,1.05-.23.85.29,1.55,1.05,1.85h0Z"/>
  <path d="M65.78,126.47c-3.59.31-7.3.67-10.82-.31-2.48-.69-5.92-2.41-6.42-5.25-.25-1.38.64-2.78,1.31-3.92.72-1.23,1.56-2.36,2.53-3.4,1.99-2.15,4.44-3.9,7.17-5,.76-.31,1.27-1,1.05-1.85-.19-.71-1.1-1.35-1.85-1.05-5.17,2.09-9.56,5.9-12.1,10.9-.65,1.27-1.22,2.63-1.14,4.08s.75,2.87,1.66,4.03c1.77,2.24,4.44,3.67,7.16,4.39,3.74,1,7.65.7,11.46.37,1.91-.17,1.93-3.17,0-3h0Z"/>
  <path d="M98.93,130.34c-.43,1.74-2.24,2.6-3.94,2.35-2.19-.33-3.86-2-5.02-3.77s-2.44-4.07-1.97-6.24c.38-1.8,1.8-2.93,3.63-2.35,2.19.7,3.97,2.93,4.8,5,.3.75,1,1.28,1.85,1.05.71-.2,1.35-1.09,1.05-1.85-1.14-2.84-3.2-5.51-6.06-6.77s-6.21-.34-7.62,2.64-.4,6.37,1.2,9.14,3.85,5.23,6.99,5.97c3.33.78,7.13-.85,7.99-4.37.46-1.87-2.43-2.67-2.89-.8h0Z"/>
  <path d="M74.85,116.51c1.77,4.95,5.41,9.16,10.15,11.48.73.36,1.62.2,2.05-.54.39-.66.19-1.69-.54-2.05-2.15-1.05-3.81-2.3-5.41-4.07-1.41-1.56-2.67-3.66-3.37-5.61-.27-.76-1.02-1.27-1.85-1.05-.74.2-1.32,1.08-1.05,1.85h0Z"/>
  <path d="M37.62,66.02c-1.56,1.61-5.41-.51-6.98-1.26-2.6-1.24-5.03-2.83-7.19-4.74-4.57-4.05-8.1-9.42-7.77-15.74.14-2.79,1.18-5.24,3.77-6.52,2.16-1.07,4.68-1.08,6.94-.33,5.42,1.8,9.38,7.3,11.9,12.15,1.52,2.93,2.91,6.31,3.22,9.63.27,2.83-.94,6.71-4.45,6.39-1.92-.17-1.91,2.83,0,3,3.32.3,6.16-2.29,7.09-5.33,1.1-3.58-.09-7.58-1.37-10.96-2.47-6.49-6.9-13.51-13.25-16.78-5.51-2.84-13.46-1.92-16,4.47-2.9,7.3,1.1,15.42,6.18,20.6,2.81,2.87,6.16,5.25,9.8,6.94,2.96,1.37,7.49,3.46,10.24.62,1.34-1.39-.77-3.51-2.12-2.12h0Z"/>
  <path d="M30.13,49.11c-.01-.06-.02-.11-.03-.17-.02-.11-.01-.07.02.12.02-.02-.02-.19-.02-.22-.02-.21-.02-.41-.02-.62,0-.19.01-.37.03-.56.03-.29.06-.05,0,0,.03-.02.05-.3.06-.33.07-.37.18-.73.3-1.08.03-.09.07-.18.1-.26.07-.17-.12.25,0,0,.09-.19.18-.37.28-.55.09-.16.19-.32.3-.48.05-.08.11-.15.16-.23.21-.3-.13.15,0-.01.26-.3.52-.59.81-.86.07-.06.14-.12.21-.18.13-.11.16-.12,0,0,.15-.11.3-.22.46-.32.17-.11.35-.21.54-.3.08-.04.17-.08.25-.12.28-.13-.26.1.06-.02.73-.28,1.31-1.02,1.05-1.85-.23-.71-1.06-1.35-1.85-1.05-3.98,1.52-6.36,5.72-5.62,9.91.14.77,1.12,1.28,1.85,1.05.83-.27,1.19-1.02,1.05-1.85h0Z"/>
  <path d="M34.37,52.9c-.04-.14-.07-.29-.1-.43-.04-.25.01.03.01.12,0-.08-.02-.16-.02-.24,0-.15,0-.3,0-.44s.11-.62,0-.12c.06-.28.1-.55.19-.83.02-.06.04-.13.07-.19.04-.12.17-.31-.03.06.07-.13.12-.27.19-.4s.15-.26.23-.38c.04-.06.07-.11.11-.17.14-.2,0,0-.07.08.2-.22.38-.45.61-.65.05-.04.1-.09.15-.13.14-.12-.29.21-.08.06.13-.09.26-.18.4-.26.12-.07.24-.13.36-.19.26-.14-.34.12-.06.03.08-.03.15-.05.23-.08.74-.24,1.31-1.05,1.05-1.85-.24-.74-1.05-1.31-1.85-1.05-3.19,1.04-5.19,4.61-4.29,7.87.21.76,1.07,1.3,1.85,1.05s1.27-1.03,1.05-1.85h0Z"/>
  <path d="M38.66,56.43c-.02-.11-.04-.21-.05-.32l.05.4c-.04-.34-.04-.69,0-1.03l-.05.4c.06-.39.16-.76.31-1.12l-.15.36c.16-.36.35-.69.59-1l-.23.3c.22-.27.46-.51.73-.73l-.3.23c.22-.17.46-.32.72-.44.32-.16.6-.56.69-.9.1-.36.05-.84-.15-1.16-.47-.73-1.29-.9-2.05-.54-1.06.51-1.97,1.45-2.48,2.5-.59,1.21-.78,2.51-.51,3.83.16.77,1.11,1.29,1.85,1.05.81-.26,1.22-1.02,1.05-1.85h0Z"/>
  <path d="M37.44,69.16c1.18,2.77,3.92,5.17,6.96,5.53,1.74.2,3.53-.75,3.97-2.52.39-1.59-.28-3.19-1-4.58-.82-1.58-1.92-3.07-3.7-3.61-.75-.23-1.67.27-1.85,1.05s.24,1.6,1.05,1.85c.03,0,.21.07.21.07,0,.01-.26-.13-.11-.04.11.06.23.12.33.19.05.03.14.08.18.12,0,0-.21-.18-.09-.06s.24.22.36.35c.04.04.3.35.17.19s.12.18.15.22c.16.24.31.49.45.74.13.23.25.47.37.71.06.12.12.24.17.36.02.05.09.16.1.21,0-.09-.09-.22-.02-.04.1.25.19.51.25.77.02.07.03.15.05.22.05.17-.06.11,0-.07-.03.1.02.32.02.43,0,.05,0,.11,0,.16,0,.19.1-.25,0-.09-.02.03-.03.11-.04.15-.06.27,0-.06.04-.07-.01,0-.07.12-.08.14-.07.18.19-.18.05-.04-.04.04-.07.08-.11.12-.19.21.15-.06.02-.01-.06.02-.13.06-.18.1-.14.1.13-.08.12-.05,0,0-.21.06-.2.06-.11.04-.09.08,0,.01h.1c-.05,0-.11,0-.16,0-.05,0-.11,0-.16,0-.12,0-.32-.06-.43-.02.18-.06.24.05.07,0-.07-.02-.14-.03-.22-.05-.11-.03-.21-.06-.32-.09-.07-.02-.14-.05-.21-.07-.12-.04-.17,0,.05.03-.13-.01-.31-.14-.42-.2-.24-.12-.48-.26-.71-.41-.12-.07-.23-.15-.34-.23-.05-.03-.09-.07-.14-.1.27.19.04.03-.02-.02-.26-.21-.5-.44-.73-.68-.11-.11-.21-.23-.32-.35-.07-.08-.32-.42-.13-.15-.39-.54-.72-1.11-.98-1.73-.31-.73-1.43-.94-2.05-.54-.75.49-.87,1.28-.54,2.05h0Z"/>
  <path d="M35.56,101.64c-1.79,1.96-4.84,2.21-7.34,2.29s-5.11-.23-7.59-.92c-5.02-1.4-9.98-4.39-13.06-8.67-1.53-2.12-2.67-4.9-1.44-7.44,1.02-2.11,3.23-3.48,5.48-3.92,5.52-1.08,11.69,2.38,15.82,5.75,2.11,1.72,12.53,11.91,7.25,14.18-1.77.76-.24,3.35,1.51,2.59,3.23-1.39,3.26-5.37,2.03-8.13-1.36-3.06-3.59-5.88-5.92-8.25-4.64-4.73-11.25-8.92-18.02-9.29s-13.17,4.72-11.38,11.73c1.62,6.35,8.25,11.04,14.01,13.35,3.33,1.34,6.94,2.04,10.53,2.03s7.73-.45,10.23-3.18c1.3-1.42-.82-3.55-2.12-2.12h0Z"/>
  <path d="M20.37,90.42c.13.3-.07-.21-.09-.27-.06-.17-.11-.34-.16-.51s-.09-.35-.12-.52c-.01-.06-.1-.62-.05-.26-.09-.71-.09-1.43,0-2.15-.04.35.04-.2.05-.27.03-.18.07-.35.12-.52.09-.35.2-.69.33-1.02-.12.3.09-.2.12-.26.08-.16.16-.32.25-.47.18-.31.38-.61.59-.89.47-.63.12-1.7-.54-2.05-.79-.42-1.55-.13-2.05.54-2.2,2.92-2.46,6.87-1.05,10.17.31.72,1.43.94,2.05.54.75-.48.87-1.28.54-2.05h0Z"/>
  <path d="M26.72,93.04c-.07-.14-.15-.28-.2-.43.13.37-.04-.12-.06-.19-.1-.3-.18-.6-.24-.91-.02-.08-.14-.59-.04-.18-.04-.15-.03-.32-.04-.47-.02-.31-.02-.63,0-.94,0-.08.04-.6,0-.19.01-.16.05-.31.08-.47.06-.31.15-.61.25-.91.02-.07.19-.56.06-.19.05-.15.13-.29.2-.43.14-.28.31-.55.49-.81.45-.65.14-1.69-.54-2.05-.77-.4-1.57-.15-2.05.54-1.85,2.67-1.97,6.28-.51,9.14.36.7,1.4.96,2.05.54.71-.46.92-1.3.54-2.05h0Z"/>
  <path d="M30.93,96.21c-.04-.47-.05-.95-.03-1.42.01-.24.03-.47.06-.71.03-.31-.05.34,0-.05.02-.12.04-.23.06-.35.09-.47.21-.93.36-1.37.03-.1.07-.19.1-.29s.07-.31.15-.38l-.07.17c.03-.06.05-.12.08-.19.06-.12.11-.25.17-.37.35-.7.21-1.66-.54-2.05-.68-.36-1.68-.21-2.05.54-.99,2-1.48,4.24-1.29,6.47.06.78.64,1.54,1.5,1.5.76-.03,1.57-.66,1.5-1.5h0Z"/>
  <path d="M35.42,106.6c1.46.79,2.98,1.46,4.55,2s3.41.88,4.97-.02c.76-.43,1.32-1.11,1.64-1.91.33-.86.18-1.79-.19-2.61-.31-.7-.84-1.29-1.37-1.84-.47-.5-.95-.99-1.46-1.46-1.25-1.16-2.68-2.16-4.35-2.59-.76-.19-1.66.25-1.85,1.05s.23,1.64,1.05,1.85c.19.05.37.1.55.16.09.03.18.07.27.1-.14-.06-.13-.05.03.02.3.16.59.31.87.49.16.11.32.22.48.33-.21-.16.15.12.16.13.3.25.59.51.88.78.5.47.98.97,1.44,1.47.13.15.27.29.39.45-.14-.19.15.26.18.31.2.35-.05-.21.07.17.04.18.04.18.02.02,0,.18,0,.19.03.01-.02.08-.04.17-.06.25.07-.16.07-.17,0-.02l-.07.11c.11-.13.1-.14-.01-.01-.13.11-.13.12,0,.02-.07.05-.14.1-.22.14-.08.04-.15.08-.23.12.16-.07.15-.07-.01-.02-.04,0-.39.07-.19.05-.22.02-.45.01-.66,0,.12.02.09.02-.1-.02-.11-.02-.22-.04-.33-.07-.16-.04-.33-.09-.49-.13-1.65-.49-2.96-1.08-4.48-1.91-.69-.37-1.67-.19-2.05.54s-.2,1.65.54,2.05h0Z"/>
  <path d="M61.42,49.22c-6.04.47-9.69-5.15-11.5-10.14-1.04-2.86-1.85-5.82-2.48-8.81-.58-2.76-1.28-5.8-.91-8.63.32-2.41,1.72-4.26,4.1-4.86,2.04-.52,4.32-.09,6.1,1,4.52,2.77,6.07,8.87,6.98,13.72.66,3.53.86,7.16.45,10.73-.31,2.77-1.31,7.03-4.9,6.78-1.93-.14-1.92,2.87,0,3,3.5.25,6.06-2.54,7.1-5.62,1.17-3.47,1.17-7.52.86-11.13-.55-6.41-2.16-14.32-7.25-18.77-4.05-3.55-11.23-4.34-14.76.42-2.05,2.77-1.94,6.37-1.48,9.62.54,3.83,1.41,7.62,2.58,11.3,2.18,6.82,6.71,15.03,15.09,14.38,1.91-.15,1.93-3.15,0-3h0Z"/>
  <path d="M57.4,51.49c.32,3.13.74,6.34,2.77,8.88.55.68,1.25,1.24,2.14,1.35,1.08.13,1.98-.49,2.55-1.36.91-1.4,1.08-3.35.91-4.96-.21-1.95-.82-3.78-1.52-5.61-.29-.76-1.01-1.28-1.85-1.05-.72.2-1.34,1.08-1.05,1.85.32.85.64,1.7.9,2.57.12.41.23.82.33,1.23.08.36.16.77.19,1.01.08.76.08,1.61-.05,2.2-.05.23-.11.45-.18.67,0,0-.18.46-.09.27-.02.05-.3.53-.16.29-.13.12-.13.13-.01.02.09-.07.19-.08.3-.06.11-.03.2-.01.28.05-.15-.09-.16-.1-.06-.02-.16-.12-.29-.29-.41-.44.14.17-.14-.2-.15-.2-.12-.17-.23-.35-.33-.53-.08-.14-.15-.27-.22-.41-.03-.05-.25-.54-.17-.35-.14-.34-.26-.69-.36-1.04-.21-.72-.37-1.45-.49-2.19-.11-.68-.18-1.31-.26-2.16-.08-.81-.63-1.5-1.5-1.5-.75,0-1.58.69-1.5,1.5h0Z"/>
  <path d="M57.05,30.08c.16-.35.34-.68.55-1.01.06-.1.13-.19.19-.28.1-.14.05-.06-.03.03.12-.15.24-.29.37-.43.26-.28.54-.54.84-.78s-.25.17.06-.04c.06-.04.12-.09.19-.13.17-.12.35-.23.54-.33.17-.1.34-.18.51-.27.06-.03.21-.12.26-.12-.14-.01-.2.08.01,0,.36-.14.72-.25,1.1-.33.09-.02.19-.04.28-.06.05,0,.37-.07.14-.03s.09,0,.14-.01c.09,0,.19-.02.29-.02.4-.02.8,0,1.2.03.78.08,1.53-.75,1.5-1.5-.04-.88-.66-1.41-1.5-1.5-3.74-.39-7.67,1.86-9.23,5.28-.33.71-.23,1.65.54,2.05.66.35,1.7.22,2.05-.54h0Z"/>
  <path d="M58.77,36.3c.34-.55.67-1.09,1.04-1.62.1-.14.2-.28.31-.42.12-.16-.18.21-.04.06.06-.07.11-.13.16-.2.21-.25.43-.49.67-.71.11-.1.22-.19.33-.29.15-.13,0,.02-.08.05.07-.04.13-.1.2-.14.25-.18.52-.33.79-.46.06-.03.12-.05.18-.08-.33.18-.15.06-.05.03.13-.05.27-.09.41-.13.08-.02.15-.04.23-.05.13-.03.29.01-.07,0,.16,0,.32-.02.48-.02.78,0,1.54-.69,1.5-1.5s-.66-1.5-1.5-1.5c-1.66,0-3.18.75-4.4,1.84-1.14,1.01-1.96,2.35-2.75,3.63-.41.67-.17,1.68.54,2.05s1.61.18,2.05-.54h0Z"/>
  <path d="M60.18,39.79c.19-.32.4-.63.63-.93l-.23.3c.48-.61,1.03-1.16,1.64-1.64l-.3.23c.62-.47,1.28-.87,2-1.18l-.36.15c.06-.03.13-.05.2-.08.38-.15.68-.33.9-.69.19-.32.27-.8.15-1.16s-.34-.71-.69-.9-.79-.3-1.16-.15c-1.18.47-2.22,1.09-3.18,1.91-.86.73-1.6,1.64-2.18,2.61-.4.67-.17,1.68.54,2.05s1.62.18,2.05-.54h0Z"/>
  <path d="M197.06,58.08c.36,1.41.24,2.94-.08,4.39-.57,2.53-1.95,5.25-4.19,6.72-3.04,2.01-6.77,2.22-10.24,1.44-3.25-.74-6.02-2.28-7.88-5.09-1.39-2.06-2.33-5.32-1.76-7.81.56-2.46,3.09-3.06,5.29-2.56,2.02.46,2.32,1.67,2.59,3.48.32,2.12,1.58,4.08,3.79,4.58,1.16.26,2.46.03,3.39-.71.6-.47.89-1.24,1.05-1.96.45-1.99-1.05-2.75-2.74-3.17l-1.58-.4c-2.15-.56-2.35-2.21-1.92-4.08.47-2.09,1.4-3.14,3.66-2.74l1.61.29c1.68.3,2.75-.25,3.14-1.95.43-1.88-.85-2.97-2.54-3.35-1.01-.23-2.23-.24-3.11.32-.62.39-1.03,1.02-1.46,1.57-.93,1.27-2.03,1.9-3.62,1.54-2.02-.46-4.38-2.13-3.85-4.48.62-2.75,3.1-5.11,5.65-6.16,2.59-1.05,5.51-.84,8.18-.23,3.47.79,6.95,2.53,8.33,5.99.76,1.84.82,3.91.38,5.86-.3,1.34-.86,2.62-1.75,3.67-.61.7-1.36,1.14-2.17,1.52.83,1.02,1.51,2.05,1.82,3.34Z"/>
  <path d="M185.95,20.19c1.55,4.03,4.14,7.6,7.71,10.07,1.7,1.17,3.64,2.05,5.66,2.49,2.56.55,5.26.46,7.86.54,1.93.06,1.93-2.94,0-3-2.23-.07-4.58.05-6.78-.38-1.8-.35-3.47-1.07-4.99-2.09-3-2-5.28-5.1-6.57-8.44-.29-.75-1.01-1.28-1.85-1.05-.72.2-1.34,1.08-1.05,1.85h0Z"/>
  <path d="M206.33,31.59c-2.34,8.02,1.43,16.76,8.95,20.45,1.73.85,3.25-1.74,1.51-2.59-6.35-3.11-9.56-10.24-7.57-17.06.54-1.86-2.35-2.65-2.89-.8h0Z"/>
  <path d="M216.41,50.47c-3.82,1.91-6.78,5.29-8.21,9.31-1.58,4.44-1,9.46,1.27,13.54.94,1.69,3.53.18,2.59-1.51-3.8-6.8-1.05-15.3,5.86-18.75,1.73-.86.21-3.45-1.51-2.59h0Z"/>
  <path d="M195.29,85.4c2.73-5.47,8.42-9.19,14.55-9.35,1.93-.05,1.93-3.05,0-3-7.13.19-13.94,4.43-17.14,10.83-.86,1.72,1.73,3.24,2.59,1.51h0Z"/>
  <path d="M195.28,84.58c-.95-2.22-2.94-3.84-5.17-4.65-2.61-.94-5.46-.55-7.95.52-.75.32-.91,1.42-.54,2.05.45.77,1.3.86,2.05.54,1.82-.78,3.78-.83,5.64-.22,1.46.48,2.72,1.72,3.38,3.27.32.74,1.42.91,2.05.54.77-.45.86-1.3.54-2.05h0Z"/>
  <path d="M185.64,19.6c-1.32,2.95-3.53,5.16-6.42,6.59-1.4.69-2.9,1.16-4.41,1.51-1.6.37-3.26.68-4.83.07-.76-.29-1.65.32-1.85,1.05-.23.85.29,1.55,1.05,1.85,1.88.73,3.94.45,5.86.05s3.7-.98,5.43-1.81c3.4-1.61,6.21-4.34,7.75-7.79.33-.74.21-1.61-.54-2.05-.64-.37-1.72-.2-2.05.54h0Z"/>
  <path d="M168.02,29.34c-.18,2.98-1.65,5.76-3.89,7.7-2.63,2.29-6.26,2.85-9.62,3.09-.81.06-1.5.65-1.5,1.5,0,.77.69,1.56,1.5,1.5,4.22-.29,8.45-1.12,11.74-3.97,2.84-2.47,4.54-6.09,4.76-9.82.12-1.93-2.88-1.92-3,0h0Z"/>
  <path d="M153.09,42.53c2.16,2.25,4.29,4.82,4.5,8.07.18,2.84-.81,5.63-2.84,7.64-1.37,1.36.75,3.48,2.12,2.12,2.55-2.53,3.95-6.17,3.72-9.76-.26-4.1-2.62-7.32-5.38-10.19-1.34-1.39-3.46.73-2.12,2.12h0Z"/>
  <path d="M155.84,61.32c1.23-.02,2.23.77,3.1,1.56,1.04.95,2.12,1.96,2.92,3.13,1.47,2.18,1.78,5.04.64,7.44-.35.73-.2,1.62.54,2.05.65.38,1.7.2,2.05-.54,1.59-3.34,1.46-7.37-.64-10.47-1.02-1.51-2.35-2.86-3.73-4.04s-2.99-2.16-4.88-2.13-1.93,3.03,0,3h0Z"/>
  <path d="M163.99,76.46c.12-.04.24-.07.37-.09.06-.01.11-.02.17-.03.26-.05-.03-.03-.11,0,.18-.09.52-.04.72-.04.13,0,.25,0,.38.02.06,0,.11.01.17.02.3.03-.28-.05-.11-.01.25.05.5.1.74.17.11.03.22.07.32.11.06.02.13.06.2.08-.05-.01-.31-.14-.13-.05.23.11.45.23.67.36.11.07.21.14.31.21.15.1-.24-.2-.1-.08.04.04.09.07.13.11.2.18.39.37.56.57.51.6,1.6.57,2.12,0,.58-.64.55-1.48,0-2.12-1.72-2.01-4.68-2.84-7.21-2.11-.75.22-1.3,1.07-1.05,1.85s1.04,1.28,1.85,1.05h0Z"/>
  <g>
    <path d="M73.9,21.64c.96-.36,1.72-.12,2.59.32,2,1,3.69,1.11,5.73.48,1.17-.36,3.13-1.17,2.61-2.64-.46-1.29-2.57-.84-3.64-.68-1.72.26-3.52.51-5.32.66-1.16.09-2.41.07-3.54-.27-1.81-.49-3.12-1.62-3.91-3.06-.62-1.14-.8-2.21-.4-3.49.23-.71.57-1.39,1.09-2,1.4-1.7,3.94-2.86,6.2-3.58,2.54-.81,5.37-1.29,7.94-.92,1.4.19,3.26.77,3.62,2.01.38,1.33-1.04,3.07-2.52,3.46-1.13.29-2.31-.17-3.39-.44-1.26-.31-2.68-.17-3.96.23-.99.31-3.03,1.17-2.51,2.29.4.86,1.93.58,2.75.49.92-.13,1.84-.27,2.75-.4,4.84-.67,9.18-.94,10.55,4.01.37,1.28.4,2.55,0,3.79-.28.86-.71,1.65-1.35,2.27-1.49,1.47-3.49,2.29-5.51,2.91-2.08.63-4.44,1.07-6.81.7-1.6-.27-4.09-1.03-4.94-2.52-.74-1.29.6-3.11,1.97-3.62Z"/>
    <path d="M90.69,14.5c-.75-2.75-.7-5.67,1.11-8.19,1.85-2.6,5.47-3.85,8.99-4.24,3.49-.41,7.24,0,9.69,2.1,2.43,2.06,3.27,4.92,3.29,7.79.03,2.9-.76,5.95-2.86,8.01-2,1.91-4.51,2.86-7.16,3.13-6.38.65-11.18-2.1-13.06-8.61ZM102.88,17.98c3.39-.35,4.96-2.65,4.74-5.81-.22-3.12-2.18-5.57-6.15-5.14-1.55.17-3.05.74-3.92,1.89-1,1.33-1.06,2.98-.75,4.49.63,3.03,2.77,4.92,6.09,4.57Z"/>
    <path d="M121.89,9.36c3.08.17,6.15.45,9.21.85.34-1.93.68-3.86,1.02-5.79.29-1.67,1.67-1.83,3.44-1.56,1.85.28,3.26.89,2.82,2.64-.05.3-.09.61-.17.93-.6,2.39-1.2,4.78-1.79,7.17-.68,2.79-1.35,5.58-2.03,8.37-.16.67-.44,1.33-1.14,1.62-.59.23-1.25.21-1.85.11-.71-.12-1.46-.35-1.97-.88-.5-.52-.37-1.29-.25-1.98.34-1.93.68-3.86,1.02-5.79-2.89-.39-5.8-.66-8.71-.83-.16,2.03-.31,4.06-.47,6.09-.05.6-.19,1.25-.76,1.57-.61.36-1.36.39-2.03.37-1.53-.06-2.48-.46-2.47-2.22.08-5.49.15-10.99.23-16.48.02-1.69,1.33-2.14,3.2-2.09.9.02,1.89.18,2.59.65.57.4.57.98.53,1.54-.15,1.91-.29,3.81-.44,5.72Z"/>
    <path d="M137.97,14.23c.74-2.84,2.28-5.52,5.21-7.15,3-1.68,6.92-1.41,10.35-.39,3.41,1,6.67,2.85,7.86,5.78,1.19,2.87.49,5.86-.98,8.52-1.48,2.69-3.81,5.2-6.83,6.26-2.86.97-5.67.86-8.24.06-6.17-1.91-9.02-6.32-7.37-13.09ZM147.21,22.24c3.28,1.01,5.94-.49,7.38-3.5,1.42-2.97.87-6.02-3-7.18-1.51-.45-3.18-.51-4.56.21-1.6.84-2.49,2.34-3,3.86-.99,3.05-.04,5.64,3.18,6.62Z"/>
  </g>
  <g>
    <path d="M81.57,35.6c.89,1.46,1.78,2.91,2.67,4.37.21.35.37.64.11.94-.14.19-.37.31-.6.4-.29.11-.63.25-.98.2-.43-.06-.62-.28-.83-.59-1.34-2.03-2.69-4.07-4.03-6.1-.21-.32-.46-.71-.35-1.08.12-.39.85-.68,1.26-.85.39-.16.82-.3,1.28-.32.56-.03.94.17,1.37.44,1.64.99,3.23,2.02,4.76,3.09-.71-1.34-1.42-2.68-2.13-4.03-.4-.77.03-1.05.84-1.31.83-.27,1.48-.26,1.85.54,1.04,2.22,2.07,4.45,3.11,6.67.16.34.26.71.04,1-.18.26-.53.39-.84.48-1.01.32-1.37.1-2.28-.53-1.69-1.16-3.45-2.27-5.29-3.33Z"/>
    <path d="M93.06,35.06c.25.66.5,1.32.75,1.98.1.26.18.52.05.74-.16.28-.51.43-.83.51-.3.08-.67.12-1,0-.28-.11-.44-.39-.54-.64-.88-2.03-1.76-4.06-2.64-6.1-.18-.41-.35-.84-.24-1.26.13-.5.69-.76,1.24-.9,1.58-.42,3.16-.8,4.75-1.13.91-.19,1.73-.21,2.55.24.78.43,1.22,1.42,1.42,2.18.23.88.28,1.84-.19,2.6-.32.53-.96.8-1.58.92-1.25.25-2.49.54-3.73.85ZM91.59,31.24c.24.62.47,1.23.71,1.85.93-.23,1.86-.45,2.79-.66.79-.17,1.25-.47.99-1.31-.18-.57-.66-.78-1.28-.64-1.08.23-2.15.48-3.22.76Z"/>
    <path d="M99.79,32.07c-.32-1.28-.29-2.61.48-3.73.78-1.15,2.3-1.66,3.78-1.83,1.47-.17,3.05,0,4.15.94,1.09.92,1.54,2.21,1.64,3.52.1,1.33-.15,2.74-1.04,3.71-.85.91-1.97,1.37-3.17,1.49-2.9.3-5.05-1.08-5.84-4.11ZM105.17,33.82c1.51-.16,2.15-1.23,1.99-2.68-.17-1.43-1.06-2.53-2.75-2.35-.66.07-1.3.32-1.66.84-.42.6-.43,1.35-.29,2.05.29,1.4,1.25,2.3,2.72,2.14Z"/>
    <path d="M113.87,28.48c-.78,0-1.56.02-2.34.05-.34.01-.73.03-1-.22-.25-.21-.33-.58-.35-.89-.06-.84.22-1.17,1.19-1.21,2.63-.1,5.26-.08,7.89.03.94.04,1.24.38,1.16,1.21-.03.32-.1.69-.38.91-.28.24-.66.22-1.01.21-.8-.04-1.6-.06-2.4-.08-.07,2-.15,4-.22,5.99,0,.52-.08.86-.6,1.03-.22.07-.46.09-.68.09-.34,0-.73-.05-1-.3-.2-.19-.22-.51-.22-.78-.02-2.02-.03-4.03-.05-6.05Z"/>
    <path d="M122.01,34.7c-.16.28-.43.8-.66,1-.21.17-.45.21-.7.19-.56-.04-1.32-.4-1.26-1.1.02-.22.12-.4.23-.6.74-1.33,1.47-2.69,2.24-4.04.45-.75.9-1.5,1.38-2.25.53-.85.88-1.47,2.11-1.34.4.04.87.15,1.17.4.29.25.39.59.49.94.61,2.35,1.1,4.7,1.49,7.06.05.33.13.67.04,1.01-.18.69-1.04.77-1.57.69-.83-.13-.8-.82-.96-1.52-1.33-.18-2.66-.34-4-.46ZM125.56,32.92c-.19-1.06-.41-2.13-.64-3.19-.59.97-1.16,1.94-1.71,2.92.79.08,1.57.17,2.35.26Z"/>
    <path d="M131.11,33.42c.44.08.62.35.77.73.37.85.92,1.28,1.84,1.49.53.12,1.48.23,1.75-.48.23-.61-.66-.9-1.08-1.07-.68-.28-1.38-.59-2.03-.94-.42-.23-.83-.53-1.1-.93-.44-.61-.51-1.37-.31-2.12.16-.59.44-1.05.96-1.46.29-.22.61-.41.97-.53.97-.34,2.16-.22,3.13-.01,1.09.24,2.19.66,2.97,1.35.43.37.9.99.66,1.57-.26.62-1.29,1.03-1.93.86-.49-.12-.76-.56-1.05-.9-.34-.4-.86-.65-1.42-.78-.43-.1-1.37-.22-1.55.34-.14.43.47.67.77.81.35.15.71.3,1.06.45,1.87.8,3.52,1.58,2.53,3.87-.25.6-.62,1.11-1.16,1.53-.37.29-.77.51-1.2.63-1.01.27-2.01.16-2.93-.05-.95-.22-1.93-.59-2.62-1.29-.47-.48-1.06-1.37-.86-2.15.17-.68,1.19-1.06,1.82-.94Z"/>
    <path d="M139.63,34.38c.56-1.27,1.46-2.44,2.86-3.1,1.44-.69,3.11-.49,4.54,0,1.42.49,2.73,1.32,3.1,2.63.38,1.28-.06,2.62-.84,3.83-.78,1.22-1.94,2.36-3.39,2.83-1.36.43-2.68.35-3.83-.05-2.78-.98-3.74-3.12-2.45-6.14ZM143.23,38.25c1.44.51,2.74-.16,3.54-1.51.8-1.34.71-2.7-.91-3.27-.64-.22-1.37-.28-2.03.03-.76.35-1.27,1.01-1.61,1.69-.66,1.36-.41,2.57,1,3.07Z"/>
  </g>
</svg>